<?xml version="1.0" encoding="iso-8859-1"?>
<!-- Generator: Adobe Illustrator 19.0.0, SVG Export Plug-In . SVG Version: 6.00 Build 0)  -->
<svg version="1.1" id="Layer_1" xmlns="http://www.w3.org/2000/svg" xmlns:xlink="http://www.w3.org/1999/xlink" x="0px" y="0px"
	 viewBox="0 0 512.001 512.001" style="enable-background:new 0 0 512.001 512.001;" xml:space="preserve">
<path style="fill:#ED663E;" d="M496.147,167.158c-12.416-33.624-32.113-65.168-59.12-92.176
	c-99.976-99.976-262.068-99.976-362.043,0s-99.976,262.068,0,362.043c26.335,26.335,56.983,45.724,89.667,58.185L496.147,167.158z"
	/>
<path style="fill:#ED3929;" d="M437.028,437.026c72.969-72.969,92.665-179.022,59.12-269.868l-59.907-59.907L90.726,421.284
	l73.926,73.926C256.047,530.056,363.387,510.666,437.028,437.026z"/>
<g>
	
		<rect x="377.884" y="69.237" transform="matrix(0.7071 -0.7071 0.7071 0.7071 49.2408 301.8743)" style="fill:#FFFFFF;" width="22.261" height="44.522"/>
	
		<rect x="346.403" y="100.733" transform="matrix(-0.7071 0.7071 -0.7071 -0.7071 697.3177 -42.8512)" style="fill:#FFFFFF;" width="22.261" height="44.522"/>
</g>
<g>
	
		<rect x="409.372" y="100.734" transform="matrix(0.7071 -0.7071 0.7071 0.7071 36.192 333.3645)" style="fill:#EDD4B8;" width="22.261" height="44.522"/>
	
		<rect x="377.879" y="132.21" transform="matrix(-0.7071 0.7071 -0.7071 -0.7071 773.3079 -11.3728)" style="fill:#EDD4B8;" width="22.261" height="44.522"/>
</g>
<path style="fill:#ED9433;" d="M307.164,330.774c-5.241,5.241-10.98,9.678-17.057,13.34c-1.307,28.061-12.673,55.742-34.102,77.171
	c-45.641,45.641-119.639,45.641-165.28,0l100.349-116.09l116.09-100.349C341.938,239.62,341.938,296,307.164,330.774z"/>
<path style="fill:#EDBF8C;" d="M259.942,252.068l47.223-47.223c-34.774-34.774-91.154-34.774-125.928,0
	c-5.241,5.241-9.678,10.98-13.34,17.057c-28.061,1.307-55.742,12.673-77.171,34.102c-45.641,45.641-45.641,119.639,0,165.28
	l90.511-90.511c21.734,21.734,56.971,21.734,78.705,0C281.675,309.04,281.675,273.803,259.942,252.068z"/>
<path style="fill:#FFFFFF;" d="M181.236,252.068c-21.734,21.734-21.734,56.971,0,78.705l78.705-78.705
	C238.207,230.335,202.97,230.335,181.236,252.068z"/>
<polygon style="fill:#D62109;" points="238.713,273.297 222.972,257.556 341.795,138.734 381.147,146.604 "/>
<polygon style="fill:#980030;" points="254.454,289.038 238.713,273.297 373.276,138.734 373.276,170.215 "/>
<polygon style="fill:#6E0023;" points="357.536,154.474 341.795,138.734 404.758,75.77 420.499,91.511 396.888,130.863 "/>
<rect x="385.749" y="86.335" transform="matrix(-0.7071 -0.7071 0.7071 -0.7071 584.9866 504.023)" style="fill:#430016;" width="22.261" height="89.044"/>
<path style="fill:#6E0023;" d="M196.977,267.81c-13.041,13.041-13.041,34.183,0,47.223l31.482-15.741L244.2,267.81
	C231.16,254.77,210.018,254.77,196.977,267.81z"/>
<path style="fill:#430016;" d="M244.201,267.81l-47.223,47.223c13.041,13.041,34.183,13.041,47.223,0S257.24,280.85,244.201,267.81z
	"/>
<g>
</g>
<g>
</g>
<g>
</g>
<g>
</g>
<g>
</g>
<g>
</g>
<g>
</g>
<g>
</g>
<g>
</g>
<g>
</g>
<g>
</g>
<g>
</g>
<g>
</g>
<g>
</g>
<g>
</g>
</svg>
