<?xml version="1.0" encoding="iso-8859-1"?>
<!-- Generator: Adobe Illustrator 19.0.0, SVG Export Plug-In . SVG Version: 6.00 Build 0)  -->
<svg version="1.1" id="Layer_1" xmlns="http://www.w3.org/2000/svg" xmlns:xlink="http://www.w3.org/1999/xlink" x="0px" y="0px"
	 viewBox="0 0 512 512" style="enable-background:new 0 0 512 512;" xml:space="preserve">
<path style="fill:#D62109;" d="M509.124,217.538C490.568,94.401,384.312,0,256,0C114.616,0,0,114.616,0,256
	c0,128.616,94.851,235.066,218.417,253.246L509.124,217.538z"/>
<path style="fill:#980030;" d="M110.775,401.604l107.642,107.642C230.685,511.052,243.231,512,256,512
	c141.385,0,256-114.616,256-256c0-13.073-0.986-25.916-2.877-38.462L401.981,110.396L110.775,401.604z"/>
<path style="fill:#0DC2AF;" d="M233.739,44.522c0,12.295,0,22.261,0,22.261h33.391L256,22.261
	C243.705,22.261,233.739,32.227,233.739,44.522z"/>
<path style="fill:#059866;" d="M256,22.261v44.522h22.261c0,0,0-9.966,0-22.261S268.295,22.261,256,22.261z"/>
<path style="fill:#5CEDDE;" d="M256.378,50.087C142.652,50.087,50.465,142.274,50.465,256s92.187,205.913,205.913,205.913
	L289.391,256L256.378,50.087z"/>
<path style="fill:#0DC2AF;" d="M256.378,461.913c113.726,0,205.913-92.187,205.913-205.913S370.105,50.087,256.378,50.087V461.913z"
	/>
<path style="fill:#FFFFFF;" d="M256.378,83.478c-95.284,0-172.522,77.237-172.522,172.522s77.237,172.522,172.522,172.522
	L289.391,256L256.378,83.478z"/>
<path style="fill:#98F0E7;" d="M256.378,428.522c95.284,0,172.522-77.237,172.522-172.522S351.663,83.478,256.378,83.478V428.522z"
	/>
<path style="fill:#5CEDDE;" d="M256.378,200.348c-30.737,0-55.652,24.915-55.652,55.652s24.915,55.652,55.652,55.652L267.028,256
	L256.378,200.348z"/>
<g>
	<rect x="244.87" y="383.633" style="fill:#0DC2AF;" width="22.261" height="22.261"/>
	<rect x="244.87" y="105.372" style="fill:#0DC2AF;" width="22.261" height="22.261"/>
</g>
<rect x="105.739" y="244.87" style="fill:#34D8C7;" width="22.261" height="22.261"/>
<rect x="384" y="244.87" style="fill:#0DC2AF;" width="22.261" height="22.261"/>
<path style="fill:#ED004C;" d="M263.873,248.129L149.758,362.244l99.651-50.698c16.27,1.851,33.199-3.448,45.678-15.928
	L263.873,248.129z"/>
<path style="fill:#F06A8B;" d="M216.382,216.914c-12.481,12.481-17.779,29.411-15.927,45.682l-50.698,99.647l114.115-114.115
	L216.382,216.914z"/>
<path style="fill:#011911;" d="M362.236,149.766L256.001,256l34.592,34.592l0.18-0.354l4.846,4.846
	c12.478-12.478,17.777-29.407,15.928-45.676C311.549,249.409,362.25,149.758,362.236,149.766z"/>
<path style="fill:#0DC2AF;" d="M262.601,200.454c-16.272-1.854-33.203,3.445-45.685,15.927l4.848,4.848l-0.355,0.18L256.001,256
	l106.234-106.234L262.601,200.454z"/>
<path style="fill:#FFFFFF;" d="M232.769,232.388c-13.04,13.04-13.04,34.182,0,47.222s34.182,13.04,47.222,0l-19.093-28.129
	L232.769,232.388z"/>
<path style="fill:#98F0E7;" d="M279.992,279.611c13.04-13.04,13.04-34.182,0-47.222c-13.04-13.04-34.182-13.04-47.222,0
	L279.992,279.611z"/>
<g>
</g>
<g>
</g>
<g>
</g>
<g>
</g>
<g>
</g>
<g>
</g>
<g>
</g>
<g>
</g>
<g>
</g>
<g>
</g>
<g>
</g>
<g>
</g>
<g>
</g>
<g>
</g>
<g>
</g>
</svg>
